<mxfile host="app.diagrams.net" agent="Mozilla/5.0 (Windows NT 10.0; Win64; x64) AppleWebKit/537.36 (KHTML, like Gecko) Chrome/135.0.0.0 Safari/537.36 Edg/135.0.0.0" version="26.0.16">
  <diagram name="Page-1" id="nEirAdEy-EIoEVUU5Mwj">
    <mxGraphModel dx="1303" dy="664" grid="1" gridSize="10" guides="1" tooltips="1" connect="1" arrows="1" fold="1" page="1" pageScale="1" pageWidth="850" pageHeight="1100" math="0" shadow="0">
      <root>
        <mxCell id="0" />
        <mxCell id="1" parent="0" />
        <mxCell id="fUYF6w9QyAUSNJwiqtsm-8" style="edgeStyle=orthogonalEdgeStyle;rounded=0;orthogonalLoop=1;jettySize=auto;html=1;entryX=0.5;entryY=0;entryDx=0;entryDy=0;" edge="1" parent="1" source="fUYF6w9QyAUSNJwiqtsm-1" target="fUYF6w9QyAUSNJwiqtsm-4">
          <mxGeometry relative="1" as="geometry" />
        </mxCell>
        <mxCell id="fUYF6w9QyAUSNJwiqtsm-10" style="edgeStyle=orthogonalEdgeStyle;rounded=0;orthogonalLoop=1;jettySize=auto;html=1;entryX=0.5;entryY=0;entryDx=0;entryDy=0;" edge="1" parent="1">
          <mxGeometry relative="1" as="geometry">
            <mxPoint x="717.5" y="149.9999999999999" as="sourcePoint" />
            <mxPoint x="470" y="425" as="targetPoint" />
          </mxGeometry>
        </mxCell>
        <mxCell id="fUYF6w9QyAUSNJwiqtsm-12" style="edgeStyle=orthogonalEdgeStyle;rounded=0;orthogonalLoop=1;jettySize=auto;html=1;entryX=0.5;entryY=0;entryDx=0;entryDy=0;" edge="1" parent="1" source="fUYF6w9QyAUSNJwiqtsm-1" target="fUYF6w9QyAUSNJwiqtsm-3">
          <mxGeometry relative="1" as="geometry" />
        </mxCell>
        <mxCell id="fUYF6w9QyAUSNJwiqtsm-13" style="edgeStyle=orthogonalEdgeStyle;rounded=0;orthogonalLoop=1;jettySize=auto;html=1;exitX=0.99;exitY=0.838;exitDx=0;exitDy=0;exitPerimeter=0;" edge="1" parent="1" source="fUYF6w9QyAUSNJwiqtsm-1">
          <mxGeometry relative="1" as="geometry">
            <mxPoint x="900" y="139.9999999999999" as="sourcePoint" />
            <mxPoint x="1275" y="405" as="targetPoint" />
          </mxGeometry>
        </mxCell>
        <mxCell id="fUYF6w9QyAUSNJwiqtsm-1" value="&lt;font style=&quot;font-size: 22px;&quot;&gt;Ứng dụng quản lí Khách Sạn&lt;/font&gt;" style="rounded=0;whiteSpace=wrap;html=1;" vertex="1" parent="1">
          <mxGeometry x="700" y="20" width="190" height="150" as="geometry" />
        </mxCell>
        <mxCell id="fUYF6w9QyAUSNJwiqtsm-3" value="&lt;font style=&quot;font-size: 23px;&quot;&gt;CRUD PHÒNG&lt;/font&gt;" style="rounded=0;whiteSpace=wrap;html=1;" vertex="1" parent="1">
          <mxGeometry x="700" y="430" width="190" height="120" as="geometry" />
        </mxCell>
        <mxCell id="fUYF6w9QyAUSNJwiqtsm-4" value="&lt;font style=&quot;font-size: 23px;&quot;&gt;CRUD DỊCH VỤ&lt;/font&gt;&lt;div&gt;&lt;br&gt;&lt;/div&gt;" style="rounded=0;whiteSpace=wrap;html=1;" vertex="1" parent="1">
          <mxGeometry x="70" y="420" width="200" height="130" as="geometry" />
        </mxCell>
        <mxCell id="fUYF6w9QyAUSNJwiqtsm-6" value="&lt;font style=&quot;font-size: 23px;&quot;&gt;&lt;br&gt;&lt;span style=&quot;color: rgb(0, 0, 0); font-family: Helvetica; font-style: normal; font-variant-ligatures: normal; font-variant-caps: normal; font-weight: 400; letter-spacing: normal; orphans: 2; text-align: center; text-indent: 0px; text-transform: none; widows: 2; word-spacing: 0px; -webkit-text-stroke-width: 0px; white-space: normal; background-color: rgb(251, 251, 251); text-decoration-thickness: initial; text-decoration-style: initial; text-decoration-color: initial; float: none; display: inline !important;&quot;&gt;CRUD NHÂN VIÊN&lt;/span&gt;&lt;/font&gt;" style="rounded=0;whiteSpace=wrap;html=1;" vertex="1" parent="1">
          <mxGeometry x="390" y="420" width="175" height="130" as="geometry" />
        </mxCell>
        <mxCell id="fUYF6w9QyAUSNJwiqtsm-9" value="&lt;font style=&quot;font-size: 23px;&quot;&gt;THỐNG KÊ&lt;/font&gt;" style="rounded=0;whiteSpace=wrap;html=1;" vertex="1" parent="1">
          <mxGeometry x="1160" y="420" width="190" height="120" as="geometry" />
        </mxCell>
      </root>
    </mxGraphModel>
  </diagram>
</mxfile>
